<svg xmlns="http://www.w3.org/2000/svg" viewBox="1728 -1058.465 156.88 37.059">
  <defs>
    <style>
      .cls-1 {
        fill: #081c2b;
      }

      .cls-2 {
        fill: #aa0035;
      }

      .cls-3 {
        fill: #1d1d1b;
      }
    </style>
  </defs>
  <g id="group-1" transform="translate(1728 -1058.465)">
    <path id="path" class="cls-1" d="M92.92,75.28a10.557,10.557,0,0,0-7.8,4.887L74.05,95.075a11.116,11.116,0,0,0-1.76,5.162H83.345l9.594-12.953V75.327Z" transform="translate(-72.243 -75.28)"/>
    <path id="path-2" data-name="path" class="cls-1" d="M72.517,132.8a11.406,11.406,0,0,1-.327-2.714H91.031v2.7Z" transform="translate(-72.19 -104.084)"/>
    <path id="path-3" data-name="path" class="cls-1" d="M73.55,138a11.088,11.088,0,0,0,1.395,2.709l16.8.028V138Z" transform="translate(-72.905 -108.241)"/>
    <path id="path-4" data-name="path" class="cls-1" d="M94.278,146.05H78.369a10.139,10.139,0,0,0,7.459,3.321h8.45Z" transform="translate(-75.437 -112.472)"/>
    <path id="path-5" data-name="path" class="cls-2" d="M119.75,75.328V87.28l9.608,12.953h11.055a11.117,11.117,0,0,0-1.779-5.153l-11.046-14.9a10.547,10.547,0,0,0-7.8-4.887Z" transform="translate(-97.184 -75.285)"/>
    <path id="path-6" data-name="path" class="cls-2" d="M142.134,132.8a11.324,11.324,0,0,0,.327-2.714H123.62v2.7Z" transform="translate(-99.218 -104.084)"/>
    <path id="path-7" data-name="path" class="cls-2" d="M141.846,138a11.1,11.1,0,0,1-1.395,2.709l-16.8.028V138Z" transform="translate(-99.234 -108.241)"/>
    <path id="path-8" data-name="path" class="cls-2" d="M123.62,146.05h15.914a10.148,10.148,0,0,1-7.46,3.321H123.62Z" transform="translate(-99.218 -112.472)"/>
    <path id="path-9" data-name="path" class="cls-3" d="M100.811,54.94h8.479v2.752h-5.319v1.333h4.83v2.557h-4.83v1.333h5.475v2.751h-8.635Z" transform="translate(-52.979 -28.872)"/>
    <path id="path-10" data-name="path" class="cls-3" d="M123.21,54.94h3.226l2.985,5.742h.028V54.94h2.984V65.668h-3.065l-3.146-5.859h-.028v5.859H123.21Z" transform="translate(-64.75 -28.872)"/>
    <path id="path-11" data-name="path" class="cls-3" d="M226.575,139.578a3.52,3.52,0,0,1-2.913,1.352c-3.027,0-4.892-2.463-4.892-5.513,0-4.085,2.742-5.727,5.053-5.727a4.473,4.473,0,0,1,4.721,4.009h-3.022a1.522,1.522,0,0,0-1.489-1.338c-2.169,0-2.1,2.372-2.1,3.122,0,1.011.389,2.766,2.307,2.766a1.569,1.569,0,0,0,1.636-1.186h-1.389v-2.3h4.189v5.9h-1.993Z" transform="translate(-149.222 -103.874)"/>
    <rect id="rectangle" class="cls-3" width="3.155" height="10.728" transform="translate(81.529 26.068)"/>
    <path id="path-12" data-name="path" class="cls-3" d="M183.011,54.94h3.226l2.984,5.742h.028V54.94h2.989V65.668h-3.075l-3.136-5.859H186v5.859h-2.984Z" transform="translate(-96.177 -28.872)"/>
    <path id="path-13" data-name="path" class="cls-3" d="M207.01,54.94h8.484v2.752H210.17v1.333H215v2.557H210.17v1.333h5.48v2.751h-8.64Z" transform="translate(-108.789 -28.872)"/>
    <path id="path-14" data-name="path" class="cls-3" d="M229.39,54.94h8.479v2.752h-5.324v1.333h4.83v2.557h-4.83v1.333h5.48v2.751H229.39Z" transform="translate(-120.551 -28.872)"/>
    <path id="path-15" data-name="path" class="cls-3" d="M324,140.982h3.155v-3.72h1.68c1.248,0,1.338,1.068,1.423,2.088a8.07,8.07,0,0,0,.256,1.656h3.155a7.338,7.338,0,0,1-.342-2.3,2.947,2.947,0,0,0-1.509-2.676,2.765,2.765,0,0,0,1.533-2.69,3.033,3.033,0,0,0-3.321-3.065H324Zm3.155-8.175h1.48c1.205,0,1.561.389,1.561,1.068,0,.949-.8,1.068-1.385,1.068h-1.651Z" transform="translate(-204.522 -104.182)"/>
    <rect id="rectangle-2" data-name="rectangle" class="cls-3" width="3.155" height="10.728" transform="translate(130.599 26.068)"/>
    <path id="path-16" data-name="path" class="cls-3" d="M286.434,54.94h3.231l2.985,5.742h.028V54.94h2.984V65.668h-3.07l-3.141-5.859h-.029v5.859h-2.989Z" transform="translate(-150.53 -28.872)"/>
    <path id="path-17" data-name="path" class="cls-3" d="M389.8,139.578a3.526,3.526,0,0,1-2.913,1.352c-3.027,0-4.892-2.463-4.892-5.513,0-4.085,2.738-5.727,5.048-5.727a4.473,4.473,0,0,1,4.721,4.009h-3.027a1.523,1.523,0,0,0-1.495-1.338c-2.164,0-2.1,2.372-2.1,3.122,0,1.011.389,2.766,2.311,2.766a1.566,1.566,0,0,0,1.637-1.186h-1.4v-2.3h4.19v5.9h-1.993Z" transform="translate(-234.998 -103.874)"/>
  </g>
</svg>
