<?xml version="1.0" encoding="utf-8"?>
<!-- Generator: Adobe Illustrator 19.0.1, SVG Export Plug-In . SVG Version: 6.00 Build 0)  -->
<svg version="1.1" id="Livello_1" xmlns="http://www.w3.org/2000/svg" xmlns:xlink="http://www.w3.org/1999/xlink" x="0px" y="0px"
	 viewBox="-42.1 93.1 102.1 32.9" style="enable-background:new -42.1 93.1 102.1 32.9;" xml:space="preserve">
<style type="text/css">
	.st0{fill:#FFFFFF;}
</style>
<g>
	<polygon class="st0" points="-41.3,121.2 -40.5,121.2 -39.9,124.8 -39.9,124.8 -39.3,121.2 -38.5,121.2 -37.9,124.8 -37.9,124.8 
		-37.3,121.2 -36.5,121.2 -37.5,125.8 -38.3,125.8 -38.9,122.4 -38.9,122.4 -39.5,125.8 -40.4,125.8 	"/>
	<path class="st0" d="M-31.2,124.1l-0.5-2.3l0,0l-0.6,2.3H-31.2z M-32.2,121.2h0.9l1.2,4.6h-0.8l-0.3-1.1h-1.4l-0.3,1.1h-0.8
		L-32.2,121.2z"/>
	<polygon class="st0" points="-26.1,121.8 -27.2,121.8 -27.2,121.2 -24.3,121.2 -24.3,121.8 -25.3,121.8 -25.3,125.8 -26.1,125.8 	
		"/>
	<polygon class="st0" points="-20.6,121.2 -18.1,121.2 -18.1,121.8 -19.9,121.8 -19.9,123.1 -18.2,123.1 -18.2,123.7 -19.9,123.7 
		-19.9,125.2 -18,125.2 -18,125.8 -20.6,125.8 	"/>
	<g>
		<path class="st0" d="M-12.9,123.3c0.5,0,0.7-0.3,0.7-0.8s-0.2-0.8-0.7-0.8h-0.6v1.5L-12.9,123.3L-12.9,123.3z M-14.2,121.2h1.6
			c0.6,0,1.2,0.3,1.2,1.2c0,0.6-0.3,1.1-0.8,1.1l0,0c0.5,0,0.7,0.3,0.7,0.9c0,0.3,0,0.7,0,0.9c0,0.2,0.1,0.3,0.2,0.4h-0.8
			c-0.1-0.1-0.1-0.2-0.1-0.4c0-0.3,0-0.5,0-0.9c0-0.5-0.2-0.7-0.7-0.7h-0.6v2h-0.7V121.2L-14.2,121.2z"/>
	</g>
	<polygon class="st0" points="-2.2,121.8 -3.3,121.8 -3.3,121.2 -0.4,121.2 -0.4,121.8 -1.5,121.8 -1.5,125.8 -2.2,125.8 	"/>
	<polygon class="st0" points="3.3,121.2 5.8,121.2 5.8,121.8 4,121.8 4,123.1 5.7,123.1 5.7,123.7 4,123.7 4,125.2 5.8,125.2 
		5.8,125.8 3.3,125.8 	"/>
	<g>
		<path class="st0" d="M12.5,124.2L12.5,124.2c0,0.9-0.3,1.7-1.4,1.7c-1.2,0-1.5-0.8-1.5-2.4c0-1.7,0.4-2.4,1.5-2.4
			c1.3,0,1.4,1,1.4,1.5v0.1h-0.7v-0.1c0-0.4-0.1-0.9-0.7-0.9c-0.5,0-0.8,0.3-0.8,1.8s0.2,1.9,0.8,1.9c0.6,0,0.7-0.7,0.7-1.1v-0.1
			H12.5L12.5,124.2z"/>
	</g>
	<polygon class="st0" points="16.2,121.2 17,121.2 17,123.1 18.3,123.1 18.3,121.2 19.1,121.2 19.1,125.8 18.3,125.8 18.3,123.7 
		17,123.7 17,125.8 16.2,125.8 	"/>
	<polygon class="st0" points="23.1,121.2 24,121.2 25.3,124.7 25.3,124.7 25.3,121.2 26,121.2 26,125.8 25.1,125.8 23.8,122.3 
		23.8,122.3 23.8,125.8 23.1,125.8 	"/>
	<g>
		<path class="st0" d="M32.2,123.5c0-1.6-0.3-1.8-0.8-1.8c-0.4,0-0.8,0.3-0.8,1.8c0,1.6,0.4,1.9,0.8,1.9
			C31.9,125.4,32.2,125.1,32.2,123.5 M29.9,123.5c0-1.7,0.5-2.4,1.5-2.4c1.1,0,1.5,0.8,1.5,2.4c0,1.7-0.5,2.4-1.5,2.4
			S29.9,125.2,29.9,123.5"/>
	</g>
	<polygon class="st0" points="36.8,121.2 37.5,121.2 37.5,125.2 39.3,125.2 39.3,125.8 36.8,125.8 	"/>
	<g>
		<path class="st0" d="M45.2,123.5c0-1.6-0.4-1.8-0.8-1.8c-0.4,0-0.8,0.3-0.8,1.8c0,1.6,0.3,1.9,0.8,1.9
			C44.8,125.4,45.2,125.1,45.2,123.5 M42.9,123.5c0-1.7,0.5-2.4,1.5-2.4c1.1,0,1.5,0.8,1.5,2.4c0,1.7-0.5,2.4-1.5,2.4
			C43.3,125.9,42.9,125.2,42.9,123.5"/>
		<path class="st0" d="M52.1,125.3L52.1,125.3c-0.2,0.4-0.5,0.6-1,0.6c-1,0-1.4-0.8-1.4-2.4c0-1.7,0.5-2.4,1.5-2.4
			c1.2,0,1.4,0.9,1.4,1.3v0.1h-0.7v-0.1c0-0.3-0.1-0.8-0.6-0.8s-0.8,0.3-0.8,1.8s0.2,1.9,0.7,1.9c0.6,0,0.8-0.4,0.8-1.4h-0.8v-0.6
			h1.5v2.4h-0.6C52.1,125.7,52.1,125.3,52.1,125.3z"/>
	</g>
	<polygon class="st0" points="57.3,124 56.1,121.2 56.9,121.2 57.7,123.2 58.5,121.2 59.3,121.2 58.1,124 58.1,125.8 57.3,125.8 	
		"/>
	<path class="st0" d="M57.3,93.2h-97c-1,0-1.8,0.8-1.8,1.9v22.3c0,1,0.8,1.9,1.8,1.9h97c1,0,1.8-0.8,1.8-1.9V95
		C59.2,94,58.3,93.2,57.3,93.2z M57.7,117.6h-97.6V94.7h97.6V117.6z"/>
	<g>
		<path class="st0" d="M-6.1,123.4c0,0.6-0.5,1.2-1.2,1.2c-0.6,0-1.2-0.5-1.2-1.2c0-0.6,0.5-1.2,1.2-1.2
			C-6.6,122.2-6.1,122.7-6.1,123.4"/>
		<path class="st0" d="M45.6,104.3H33.4V101h12.2c0.9,0,1.6,0.7,1.6,1.6C47.3,103.6,46.5,104.3,45.6,104.3 M45.6,111.2H33.4v-3.3
			h12.2c0.9,0,1.6,0.7,1.6,1.6C47.3,110.5,46.5,111.2,45.6,111.2 M49.8,106.2c2.1,0,3.8-1.7,3.8-3.8c0-2.1-1.7-3.8-3.8-3.8H33.2l0,0
			h-5.7c-0.1,0-0.3,0.1-0.3,0.3v14.6c0,0.1,0.1,0.3,0.3,0.3h5.7l0,0h16.6c2.1,0,3.8-1.7,3.8-3.8C53.6,107.9,51.9,106.2,49.8,106.2"
			/>
		<path class="st0" d="M0.9,108.2c-0.1,0-0.2-0.1-0.1-0.2l5.3-6c0.1-0.1,0.2-0.1,0.3,0l5.4,6.1c0.1,0.1,0.1,0.2-0.1,0.2L0.9,108.2
			L0.9,108.2z M11,98.8c-0.1-0.1-0.3-0.2-0.4-0.2H5c-0.1,0-0.3,0.1-0.4,0.2l-12.7,14.7c-0.1,0.1-0.1,0.2,0.1,0.2h3.8
			c0.1,0,0.3-0.1,0.4-0.2l2.4-2.8c0.2-0.1,0.3-0.2,0.5-0.2h14.4c0.1,0,0.3,0.1,0.4,0.2l2.4,2.8c0.1,0.1,0.3,0.2,0.4,0.2h6.9
			c0.1,0,0.2-0.1,0.1-0.2L11,98.8z"/>
		<path class="st0" d="M55.3,97.3h0.3c0.1,0,0.2,0,0.2-0.1l0.1-0.1V97c0,0,0-0.1-0.1-0.1c0,0-0.1,0-0.2,0h-0.3V97.3L55.3,97.3z
			 M55.1,98v-1.3h0.4c0.1,0,0.3,0,0.3,0c0.1,0,0.1,0.1,0.2,0.1c0,0.1,0.1,0.1,0.1,0.2s0,0.2-0.1,0.2c-0.1,0.1-0.2,0.1-0.3,0.1
			c0,0,0.1,0,0.1,0.1s0.1,0.1,0.2,0.3l0.2,0.3h-0.3l-0.1-0.2c-0.1-0.2-0.2-0.3-0.2-0.3s-0.1,0-0.2,0h-0.1V98L55.1,98L55.1,98z
			 M55.6,96.4c-0.2,0-0.3,0-0.5,0.1s-0.3,0.2-0.4,0.4c-0.1,0.2-0.1,0.3-0.1,0.5s0,0.3,0.1,0.5s0.2,0.3,0.4,0.4
			c0.2,0.1,0.3,0.1,0.5,0.1s0.3,0,0.5-0.1s0.3-0.2,0.4-0.4c0.1-0.2,0.1-0.3,0.1-0.5s0-0.3-0.1-0.5s-0.2-0.3-0.4-0.4
			C56,96.4,55.8,96.4,55.6,96.4 M55.6,96.2c0.2,0,0.4,0.1,0.6,0.2s0.3,0.3,0.4,0.4c0.1,0.2,0.2,0.4,0.2,0.6s-0.1,0.4-0.2,0.6
			s-0.2,0.3-0.4,0.4c-0.2,0.1-0.4,0.2-0.6,0.2s-0.4-0.1-0.6-0.2s-0.3-0.3-0.4-0.4c-0.1-0.2-0.2-0.4-0.2-0.6s0.1-0.4,0.2-0.6
			s0.3-0.3,0.4-0.4C55.2,96.2,55.4,96.2,55.6,96.2"/>
		<path class="st0" d="M-16.9,98.6h-6.2h-0.2h-12.5c-0.1,0-0.3,0.1-0.3,0.3V109c0,0.1,0.1,0.3,0.3,0.3h6c0.1,0,0.3-0.1,0.3-0.3v-7
			c0-0.1,0.1-0.3,0.3-0.3h6h0.2h3.3c2.5,0,4.6,2,4.6,4.6c0,2.5-2,4.6-4.6,4.6H-23h-0.2h-12.5c-0.1,0-0.3,0.1-0.3,0.3v2.7
			c0,0.1,0.1,0.3,0.3,0.3h12.5h0.2h6.2c4,0,7.3-3.3,7.3-7.3v-0.8C-9.6,101.9-12.9,98.6-16.9,98.6"/>
	</g>
</g>
</svg>
